<svg viewBox="0 0 397.118 270.537">
        <defs>
          
          <clipPath id="a">
            <path class="logoEye" d="M351.027,88.964c-14.981-1.655-23.753-2.621-44.371-4.9,42.979-42.651,50.7-35.157,37.945-68.126-6.318,1.729-62.179,20.463-76.679,14.449-40.172-16.659-56.528-16.9-114.3-.755l-77.288-8.34,8.381,9.313h0L65.563,25.314,88.64,53.164S62.318,60.469,9.21,97.089c18.75-4.651,53.843-12.449,85,.385C64.84,102.986,41.517,123.8,35.474,138.539c48.785-20.774,29.679,1.337,71.961.729-16.1,2.569-34.451,25.453-38.523,35.508,30.122-15.85,34.21,3.017,52.153-8.467-20.281,26.135-1.424,48.326-21.571,69.46,16.354-1.588,62.5-39.127,69.663-56.519-8.135,31.5,8.193,33.591-9.508,60.068,35.175-19.985,60.988-75.664,60.988-75.664,2.2,10.634-1.159,25.783-7.9,44.5,43.133-40.106,28.768-42.41,45.829-62.046C280.929,120.378,355.38,123.618,351.027,88.964ZM218.793,41.818l-26.126,12.75a.247.247,0,0,0,.071.467L215.4,58.554a29.951,29.951,0,0,0,17.727-2.679l20.82-10.16a.247.247,0,0,0-.016-.452l-10.723-4.316A30.07,30.07,0,0,0,218.793,41.818Zm-62.428,84.937V151.4c0,9.928,7.446,14.892,17.374,14.892s17.374-4.964,17.374-14.892v-2.853a33.405,33.405,0,0,1-4.964.371,30.115,30.115,0,0,1-12.41-2.482v-7.446a32.266,32.266,0,0,0,24.82,0v32.266h-7.446V167.9a27.337,27.337,0,0,1-17.374,5.839c-12.41,0-24.82-7.446-24.82-22.338V116.654s9.928,4.964,24.82,4.964,24.82-4.964,24.82-4.964V124.1s-9.928,4.963-24.82,4.963A66.06,66.06,0,0,1,156.365,126.755Zm42.194-22.511v7.446s-9.928,4.964-24.82,4.964c-8.866,0-19.493-3.52-29.784-6.368v60.971h-7.446V108.382a57.252,57.252,0,0,0-12.409-1.656c-14.893,0-24.82,4.964-24.82,4.964v-7.446s9.927-4.964,24.82-4.964,34.747,9.928,49.639,9.928S198.559,104.244,198.559,104.244Z"/>
          </clipPath>
        </defs>
        <g class="logo">
          <polygon class="logoAccentReverse" points="264.554 -0.207 296.712 62.731 193.473 33.237 258.796 100.268 217.457 102.716 273.149 173.739 403.813 127.628 379.027 1.327 264.554 -0.207"/>
          <polygon class="logoBaseReverse" points="215.292 -13.69 280.69 31.374 296.712 62.731 193.473 33.237 218.451 58.868 258.796 100.268 217.457 102.716 254.99 150.581 254.086 199.172 244.973 261.266 162.614 266.478 58.884 269.085 34.743 153.763 4.293 106.296 13.609 68.884 62.805 17.632 215.292 -13.69"/>
          <polygon class="logoAccentReverse" points="9.21 130.364 124.554 56.81 116.026 145.196 173.739 97.419 149.687 221.001 192.528 184.452 201.51 276.752 55.881 277.519 29.447 202.364 9.21 130.364"/>
          <polygon class="logoAccentReverse" points="27.837 34.592 101.361 46.16 117.356 32.266 157.693 47.401 167.145 3.885 23.938 25.087 27.837 34.592"/>
        </g>
      </svg>
