<svg viewBox="0 0 440.115 329.175">
        <g>
          <g>
            <path class="logoAccentReverse" d="M219.952,91.913s34.2,17.1,85.5,17.1,85.5-17.1,85.5-17.1v25.65s-34.2,17.1-85.5,17.1-85.5-17.1-85.5-17.1Z"/>
            <path class="logoAccentReverse" d="M365.3,211.613c0,34.2-25.65,51.3-59.85,51.3s-59.85-17.1-59.85-51.3v-94.05h-25.65v94.05c0,51.3,42.75,76.95,85.5,76.95s85.5-25.651,85.5-76.95v-17.1H365.3Z"/>
            <path class="logoAccentReverse" d="M390.952,168.863v25.65s-17.1,8.55-42.75,8.55-42.75-8.55-42.75-8.55v-25.65s17.1,8.55,42.75,8.55S390.952,168.863,390.952,168.863Z"/>
            <rect class="logoAccentReverse" x="365.302" y="194.513" width="25.65" height="85.5"/>
          </g>
          <g>
            <rect class="logoBaseReverse" x="177.202" y="57.713" width="25.65" height="222.3"/>
            <path class="logoBaseReverse" d="M305.452,66.262c-51.3,0-119.7-34.2-171-34.2s-85.5,17.1-85.5,17.1v25.65s34.2-17.1,85.5-17.1,119.7,34.2,171,34.2,85.5-17.1,85.5-17.1V49.163S356.752,66.262,305.452,66.262Z"/>
          </g>
        </g>
      </svg>