<?xml version="1.0" standalone="no"?>
<!DOCTYPE svg PUBLIC "-//W3C//DTD SVG 20010904//EN"
 "http://www.w3.org/TR/2001/REC-SVG-20010904/DTD/svg10.dtd">
<svg version="1.0" xmlns="http://www.w3.org/2000/svg"
 width="880.000000pt" height="880.000000pt" viewBox="0 0 880.000000 880.000000"
 preserveAspectRatio="xMidYMid meet">
<metadata>
Created by potrace 1.11, written by Peter Selinger 2001-2013
</metadata>
<g transform="translate(0.000000,880.000000) scale(0.100000,-0.100000)"
fill="#000000" stroke="none">
<path d="M2428 7044 c-2 -1 -41 -5 -88 -8 -47 -3 -103 -8 -125 -11 -22 -2 -62
-7 -90 -10 -27 -3 -59 -8 -70 -10 -11 -3 -40 -7 -65 -10 -25 -2 -56 -7 -70
-10 -62 -12 -77 -15 -105 -20 -16 -3 -70 -14 -120 -25 -49 -11 -101 -23 -115
-26 -70 -15 -366 -107 -415 -129 -16 -7 -54 -21 -82 -31 -29 -10 -53 -22 -53
-26 0 -5 -9 -8 -19 -8 -11 0 -22 -4 -25 -9 -3 -5 -6 -111 -7 -237 -1 -302 -2
-289 14 -276 33 27 380 152 452 163 6 1 21 6 35 11 14 5 32 11 40 13 8 2 35 8
60 15 25 7 53 14 63 16 10 2 26 5 35 8 9 3 28 7 42 10 14 2 60 11 102 20 43 9
92 18 110 20 34 5 82 12 146 22 20 3 57 7 82 10 25 2 65 7 90 9 231 24 643 24
755 1 12 -2 52 -7 90 -11 38 -3 72 -8 75 -10 3 -2 28 -6 56 -10 27 -3 56 -7
64 -10 8 -2 31 -7 50 -10 19 -3 42 -8 50 -10 21 -6 68 -15 110 -22 19 -3 37
-7 39 -9 2 -2 5 -977 5 -2166 l1 -2163 255 0 255 0 0 2092 c1 1151 3 2095 6
2098 3 3 25 -1 47 -9 23 -9 42 -13 42 -9 0 3 7 0 15 -7 8 -7 15 -10 15 -7 0 3
15 1 33 -5 17 -5 61 -18 97 -28 36 -10 124 -35 195 -55 72 -21 135 -38 140
-40 6 -1 17 -5 25 -8 8 -3 51 -15 95 -26 44 -12 159 -42 255 -66 170 -44 424
-102 485 -111 17 -2 41 -6 55 -9 14 -3 45 -8 70 -11 25 -3 57 -7 73 -9 15 -3
39 -7 55 -9 122 -20 463 -26 662 -12 151 11 154 11 230 20 106 13 156 20 214
32 44 9 82 15 111 19 87 12 342 77 480 123 44 14 82 27 85 27 3 1 12 4 20 7 8
3 38 14 65 23 49 17 82 30 149 60 19 9 37 23 39 33 8 29 5 492 -4 492 -4 0
-44 -16 -88 -35 -45 -19 -81 -32 -81 -29 0 2 -10 -2 -22 -10 -13 -8 -39 -17
-58 -21 -19 -4 -41 -11 -50 -16 -13 -7 -158 -52 -207 -64 -10 -3 -54 -14 -98
-25 -77 -20 -99 -25 -147 -34 -13 -2 -45 -9 -73 -16 -27 -6 -63 -13 -80 -15
-88 -11 -216 -34 -226 -41 -8 -5 -9 -3 -4 6 5 8 4 11 -1 7 -30 -18 -336 -40
-554 -40 -135 0 -325 13 -420 29 -19 3 -48 8 -65 10 -43 7 -135 22 -170 29
-16 3 -79 17 -140 30 -60 14 -123 28 -139 30 -16 3 -47 10 -70 17 -47 13 -52
14 -86 21 -14 3 -38 10 -55 17 -16 6 -30 11 -30 10 0 -5 -211 52 -470 127
-104 30 -197 56 -205 58 -25 6 -123 33 -158 44 -18 5 -33 10 -35 10 -1 0 -9 2
-17 5 -21 7 -171 47 -193 51 -10 2 -27 7 -37 10 -10 3 -28 8 -39 10 -40 9 -56
13 -136 34 -44 11 -91 22 -105 25 -14 3 -45 10 -70 16 -78 17 -87 18 -125 24
-20 4 -40 8 -44 10 -3 2 -31 7 -61 11 -30 4 -57 8 -60 10 -3 2 -30 6 -60 9
-30 4 -71 9 -90 12 -92 13 -152 16 -372 19 -130 1 -238 1 -240 -1z"/>
<path d="M4399 5838 c-5 -73 0 -2455 5 -2518 10 -117 13 -141 42 -253 43 -172
100 -300 194 -444 61 -92 54 -83 167 -199 82 -84 230 -204 252 -204 5 0 11 -4
13 -8 3 -8 124 -82 133 -82 2 0 36 -15 77 -34 124 -57 312 -118 405 -131 11
-2 29 -5 40 -8 10 -3 43 -9 73 -13 30 -4 66 -8 80 -11 50 -8 368 -10 426 -2
32 4 79 10 104 13 201 27 423 97 610 194 102 53 192 109 198 125 2 4 8 7 13 7
6 0 19 9 31 20 39 36 44 26 43 -87 l0 -108 255 0 255 0 1 1107 1 1108 -26 -7
c-14 -3 -31 -10 -37 -15 -7 -5 -70 -26 -140 -47 -149 -45 -266 -68 -444 -88
-73 -8 -349 -7 -425 1 -33 4 -76 9 -95 11 -30 4 -85 14 -225 41 -16 3 -88 26
-160 51 -71 24 -137 46 -145 49 -13 4 -15 -25 -13 -233 1 -131 2 -246 2 -255
1 -17 51 -44 127 -67 21 -7 46 -15 54 -18 8 -3 20 -7 25 -8 6 0 17 -4 25 -8 8
-3 53 -15 100 -25 78 -18 138 -29 275 -49 92 -13 449 -8 563 8 24 4 27 -10 25
-133 -1 -126 -7 -208 -19 -288 -12 -76 -95 -289 -116 -298 -5 -2 -8 -8 -8 -14
0 -15 -97 -137 -145 -181 -81 -76 -301 -207 -348 -207 -7 0 -17 -4 -23 -9 -9
-9 -191 -56 -254 -65 -214 -32 -454 -25 -657 18 -107 23 -291 89 -333 121 -8
6 -27 17 -42 24 -87 44 -258 209 -300 290 -7 14 -15 28 -18 31 -7 6 -61 120
-65 135 -1 6 -5 17 -8 25 -13 33 -35 126 -44 190 -8 51 -16 1837 -9 1856 3 9
23 7 73 -8 77 -21 203 -49 288 -64 11 -1 47 -8 80 -13 33 -6 76 -13 95 -15 19
-3 49 -7 65 -10 17 -2 64 -7 105 -11 41 -3 87 -8 101 -10 142 -24 704 -18 881
10 18 3 53 7 78 9 38 4 134 18 205 30 133 24 157 29 265 54 47 11 94 22 105
24 11 1 22 6 25 10 3 3 19 8 35 11 17 2 37 6 45 9 8 4 72 25 141 47 70 23 169
59 220 80 l94 39 1 256 c1 141 0 256 0 256 -1 0 -47 -18 -101 -41 -126 -51
-205 -79 -205 -72 0 3 -6 1 -13 -5 -13 -11 -33 -17 -222 -69 -97 -26 -292 -70
-353 -79 -20 -3 -44 -7 -52 -9 -8 -3 -37 -7 -65 -10 -27 -3 -57 -8 -65 -10 -8
-2 -46 -7 -85 -11 -38 -3 -79 -8 -90 -10 -126 -24 -750 -23 -925 1 -19 3 -53
7 -75 10 -65 7 -128 15 -160 21 -184 30 -267 46 -377 75 -46 11 -90 22 -99 24
-9 2 -47 13 -85 25 -38 12 -76 23 -84 25 -35 8 -230 80 -289 106 -74 33 -71
33 -72 17z"/>
</g>
</svg>
